<?xml version="1.0" encoding="utf-8"?>
<!-- Generator: Adobe Illustrator 24.3.0, SVG Export Plug-In . SVG Version: 6.00 Build 0)  -->
<svg version="1.1" id="Capa_1" xmlns="http://www.w3.org/2000/svg" xmlns:xlink="http://www.w3.org/1999/xlink" x="0px" y="0px"
	 viewBox="0 0 255.07 234.58" style="enable-background:new 0 0 255.07 234.58;" xml:space="preserve">
<style type="text/css">
	.st0{fill-rule:evenodd;clip-rule:evenodd;fill:#7B7462;}
	.st1{fill-rule:evenodd;clip-rule:evenodd;fill:#971005;}
</style>
<path class="st0" d="M84.08,202.71l-62.11,0l-0.01,31.87l-21.24-0.01l0.02-41.54l0.02-17.21l-0.02-34.44v-17.22l21.25,0.02
	l62.1-0.02V202.71z M21.98,185.49l41.27-0.01l-0.01-44.11l-41.26,0.01L21.98,185.49z M98.74,124.15l21.24,0.02l-0.01,93.44
	l-0.01,16.96H98.73H36.64l-0.01-16.97l62.1,0.01L98.74,124.15z"/>
<path class="st0" d="M219.15,78.55h-62.08l-0.01,31.85l-21.26,0.03l0.01-41.57l0.05-17.22l-0.04-34.43L135.83,0l21.23,0.01h62.12
	L219.15,78.55z M157.09,61.33h41.26l-0.03-44.1l-41.26-0.02L157.09,61.33z M233.85,0l21.22,0v93.43v17l-21.24-0.01l-62.11-0.01
	l0-16.97l62.12,0.01L233.85,0z"/>
<path class="st1" d="M219.17,202.73l-62.11-0.02l0.01,31.87h-21.24l-0.02-41.54l-0.01-17.24l0.03-34.41v-17.23l21.22,0.01l62.12,0
	V202.73z M157.06,185.51l41.27-0.01l0.01-44.12l-41.26,0.02L157.06,185.51z M233.83,124.17l21.22,0.01l0.01,93.43l-0.01,16.98
	h-21.24l-62.08-0.01l-0.01-16.96h62.09L233.83,124.17z"/>
<path class="st1" d="M84.08,78.53H22.01l-0.01,31.87H0.74l0.02-41.54L0.74,51.65L0.76,17.2L0.76-0.01L21.99,0l62.09,0V78.53z
	 M21.99,61.32l41.26-0.01L63.25,17.2H21.97L21.99,61.32z M98.76-0.03l21.21,0.02v93.42v17l-21.22-0.01l-62.1-0.01V93.43h62.1
	L98.76-0.03z"/>
</svg>
